<svg width="21" height="22" viewBox="0 0 21 22" fill="none" xmlns="http://www.w3.org/2000/svg">
<path d="M6.19341 5.70949C6.19341 3.32342 8.1277 1.38912 10.5138 1.38912C11.6628 1.38425 12.7664 1.83728 13.5806 2.64804C14.3948 3.45879 14.8525 4.56048 14.8525 5.70949M7.5481 10.2129H7.59387M13.3788 10.2129H13.4246M6.33071 20.6111H14.6786C17.7449 20.6111 20.0973 19.5035 19.4292 15.0459L18.6511 9.00467C18.2392 6.78041 16.8205 5.92915 15.5756 5.92915H5.39707C4.13391 5.92915 2.79753 6.84449 2.32155 9.00467L1.54352 15.0459C0.976023 19.0001 3.26435 20.6111 6.33071 20.6111Z" stroke="#8F959E" stroke-width="1.5" stroke-linecap="round" stroke-linejoin="round"/>
</svg>
